<svg id="Layer_1" data-name="Layer 1" xmlns="http://www.w3.org/2000/svg" viewBox="0 0 57.15 64">
  <style>
    path{
      fill: #141414;
    }
    @media (prefers-color-scheme: dark) {
      path {
        fill: #fbedda;
      }
    }
  </style>
  <path class="cls-1" d="M27.5,1.76A6.53,6.53,0,0,1,32,0a5.89,5.89,0,0,1,4.31,1.76,5,5,0,0,1,1.95,4.11q0,3.53-2.74,11.55a48.93,48.93,0,0,0-2.93,13.5,43.83,43.83,0,0,0,10.17-9q5.3-6.26,8.22-8a6.29,6.29,0,0,1,3.53-1.18,5.55,5.55,0,0,1,4.3,2A6.26,6.26,0,0,1,60.57,19a6.2,6.2,0,0,1-2.93,5.09q-3.14,2-11.35,3.72A53.33,53.33,0,0,0,33.17,32.1a49.26,49.26,0,0,0,13.12,4.11q8.41,1.56,11.35,3.52c2,1.44,2.93,3.07,2.93,4.89a6.53,6.53,0,0,1-1.76,4.51,5,5,0,0,1-4.11,1.95A6.64,6.64,0,0,1,51,49.91q-2.92-1.77-8.22-7.83a43.83,43.83,0,0,0-10.17-9,48.93,48.93,0,0,0,2.93,13.5q2.74,8,2.74,11.55a5.57,5.57,0,0,1-1.95,4.3A6.24,6.24,0,0,1,32,64a7,7,0,0,1-4.5-1.57,5.82,5.82,0,0,1-1.76-4.3q0-3.52,2.74-11.55a48.93,48.93,0,0,0,2.93-13.5,43.83,43.83,0,0,0-10.17,9Q15.95,48.14,13,49.91A6.64,6.64,0,0,1,9.3,51.08,5.59,5.59,0,0,1,5,49.13a7,7,0,0,1-1.56-4.51c0-1.82,1-3.45,2.93-4.89S12,37.25,17.52,36.21A49.33,49.33,0,0,0,30.83,32.1a53.33,53.33,0,0,0-13.12-4.31Q9.49,26,6.36,24.07A6.2,6.2,0,0,1,3.43,19a6.26,6.26,0,0,1,1.76-4.3,5.55,5.55,0,0,1,4.3-2A6.29,6.29,0,0,1,13,13.9q2.93,1.76,8.22,8a43.83,43.83,0,0,0,10.17,9,48.93,48.93,0,0,0-2.93-13.5q-2.75-8-2.74-11.55A5.23,5.23,0,0,1,27.5,1.76Z" transform="translate(-3.43)"/>
</svg>